<?xml version="1.0" encoding="utf-8"?>
<!-- Generator: Adobe Illustrator 16.0.0, SVG Export Plug-In . SVG Version: 6.00 Build 0)  -->
<!DOCTYPE svg PUBLIC "-//W3C//DTD SVG 1.1//EN" "http://www.w3.org/Graphics/SVG/1.1/DTD/svg11.dtd">
<svg version="1.1" id="Layer_1" xmlns="http://www.w3.org/2000/svg" xmlns:xlink="http://www.w3.org/1999/xlink" x="0px" y="0px"
	 width="40px" height="40px" viewBox="0 0 40 40" enable-background="new 0 0 40 40" xml:space="preserve">
<g>
	<path fill="#F16722" d="M20,39.5C9.248,39.5,0.5,30.752,0.5,20S9.248,0.5,20,0.5S39.5,9.248,39.5,20S30.753,39.5,20,39.5z"/>
</g>
<g>
	<path fill="#FFFFFF" d="M31.436,11.498c-0.098-0.182-0.297-0.291-0.515-0.291h-1.854v-0.48c0-0.291-0.261-0.525-0.579-0.525
		c-0.32,0-0.58,0.234-0.58,0.525v0.48h-1.16v-0.48c0-0.291-0.258-0.525-0.58-0.525c-0.32,0-0.577,0.234-0.577,0.525v0.48h-2.688
		l-0.479-3.023c-0.063-0.393-0.43-0.684-0.86-0.684h-3.128c-0.433,0-0.797,0.291-0.859,0.684l-0.479,3.023h-2.687v-0.48
		c0-0.291-0.259-0.525-0.581-0.525c-0.318,0-0.579,0.234-0.579,0.525v0.48h-1.157v-0.48c0-0.291-0.258-0.525-0.579-0.525
		c-0.321,0-0.581,0.234-0.581,0.525v0.48H9.081c-0.217,0-0.418,0.109-0.518,0.291c-0.098,0.176-0.079,0.389,0.05,0.553l1.739,2.17
		c0.109,0.135,0.282,0.217,0.468,0.217h5.769l-2.421,15.334h-0.902c-0.319,0-0.579,0.236-0.579,0.531v1.67
		c0,0.293,0.26,0.527,0.579,0.527h13.47c0.32,0,0.578-0.234,0.578-0.527v-1.67c0-0.295-0.257-0.531-0.578-0.531h-0.898
		l-2.423-15.334h5.771c0.186,0,0.358-0.082,0.468-0.217l1.738-2.17C31.518,11.887,31.536,11.674,31.436,11.498z M18.138,15.746
		l2.896,1.977L17.5,19.777L18.138,15.746z M17.152,21.98l4.754,3.336l-5.899,3.906L17.152,21.98z M23.519,26.215l0.521,3.291h-5.494
		L23.519,26.215z M18.62,21.01l3.733-2.17l0.851,5.387L18.62,21.01z M19.179,14.475l2.215-1.711l0.569,3.611L19.179,14.475z
		 M20.813,9.092l0.288,1.818l-2.505,1.936l0.592-3.754H20.813z M11.111,13.377l-0.889-1.111h6.709l-0.174,1.111H11.111z
		 M28.891,13.377h-5.645l-0.177-1.111h6.71L28.891,13.377z"/>
</g>
</svg>
